<svg xmlns="http://www.w3.org/2000/svg" viewBox="0 0 32 32">
  <rect width="32" height="32" rx="7" fill="#5B4FE9"/>
  <path d="M11 8c-2.2 0-3.4 1.3-3.4 3.3v2.4c0 1.2-.5 1.8-1.6 1.8v2.3c1.1 0 1.6.6 1.6 1.8v2.5C7.6 23.7 8.8 25 11 25"
        fill="none" stroke="#fff" stroke-width="2" stroke-linecap="round"/>
  <path d="M21 8c2.2 0 3.4 1.3 3.4 3.3v2.4c0 1.2.5 1.8 1.6 1.8v2.3c-1.1 0-1.6.6-1.6 1.8v2.5c0 2.4-1.2 3.7-3.4 3.7"
        fill="none" stroke="#fff" stroke-width="2" stroke-linecap="round"/>
  <circle cx="16" cy="16" r="1.8" fill="#fff"/>
</svg>
